<svg width="400" height="300" viewBox="0 0 400 300" xmlns="http://www.w3.org/2000/svg">
  <rect width="400" height="300" fill="#1a1a1a"/>
  <rect x="20" y="20" width="360" height="80" fill="#2a2a2a" rx="8"/>
  <rect x="40" y="40" width="60" height="40" fill="#3a3a3a" rx="4"/>
  <rect x="120" y="40" width="200" height="20" fill="#4a4a4a" rx="2"/>
  <rect x="120" y="70" width="150" height="10" fill="#4a4a4a" rx="2"/>
  <rect x="20" y="120" width="360" height="80" fill="#2a2a2a" rx="8"/>
  <rect x="40" y="140" width="60" height="40" fill="#3a3a3a" rx="4"/>
  <rect x="120" y="140" width="200" height="20" fill="#4a4a4a" rx="2"/>
  <rect x="120" y="170" width="150" height="10" fill="#4a4a4a" rx="2"/>
  <rect x="20" y="220" width="360" height="60" fill="#2a2a2a" rx="8"/>
  <rect x="40" y="240" width="60" height="20" fill="#3a3a3a" rx="2"/>
  <rect x="120" y="240" width="200" height="20" fill="#4a4a4a" rx="2"/>
  <circle cx="350" cy="50" r="15" fill="#6cfaff"/>
  <circle cx="350" cy="150" r="15" fill="#6cfaff"/>
  <circle cx="350" cy="250" r="15" fill="#6cfaff"/>
</svg> 